<svg xmlns="http://www.w3.org/2000/svg" width="512" height="512" viewBox="0 0 512 512">
  <defs>
    <linearGradient id="bg" x1="0" y1="0" x2="1" y2="1">
      <stop offset="0" stop-color="#1b1d4a"/>
      <stop offset="1" stop-color="#0a0a18"/>
    </linearGradient>
    <linearGradient id="chip" x1="0" y1="0" x2="1" y2="1">
      <stop offset="0" stop-color="#667eea"/>
      <stop offset="1" stop-color="#a78bfa"/>
    </linearGradient>
  </defs>
  <rect width="512" height="512" fill="url(#bg)"/>
  <rect x="46" y="46" width="420" height="420" rx="96" fill="none" stroke="rgba(124,138,255,0.35)" stroke-width="8"/>
  <!-- 信号走线 -->
  <path d="M130 130 H210 V256" fill="none" stroke="#22d3ee" stroke-width="10" stroke-linecap="round"/>
  <path d="M302 256 H382 V130" fill="none" stroke="#22d3ee" stroke-width="10" stroke-linecap="round"/>
  <path d="M130 382 H210 V300" fill="none" stroke="#22d3ee" stroke-width="10" stroke-linecap="round"/>
  <path d="M302 300 H382 V382" fill="none" stroke="#22d3ee" stroke-width="10" stroke-linecap="round"/>
  <!-- 焊点 -->
  <circle cx="130" cy="130" r="18" fill="#22d3ee"/>
  <circle cx="382" cy="130" r="18" fill="#22d3ee"/>
  <circle cx="130" cy="382" r="18" fill="#22d3ee"/>
  <circle cx="382" cy="382" r="18" fill="#22d3ee"/>
  <!-- 中心芯片 -->
  <rect x="196" y="196" width="120" height="120" rx="24" fill="url(#chip)"/>
  <rect x="224" y="172" width="14" height="24" rx="4" fill="#a5b4fc"/>
  <rect x="256" y="172" width="14" height="24" rx="4" fill="#a5b4fc"/>
  <rect x="288" y="172" width="14" height="24" rx="4" fill="#a5b4fc"/>
  <rect x="224" y="316" width="14" height="24" rx="4" fill="#a5b4fc"/>
  <rect x="256" y="316" width="14" height="24" rx="4" fill="#a5b4fc"/>
  <rect x="288" y="316" width="14" height="24" rx="4" fill="#a5b4fc"/>
  <rect x="172" y="224" width="24" height="14" rx="4" fill="#a5b4fc"/>
  <rect x="172" y="256" width="24" height="14" rx="4" fill="#a5b4fc"/>
  <rect x="172" y="288" width="24" height="14" rx="4" fill="#a5b4fc"/>
  <rect x="316" y="224" width="24" height="14" rx="4" fill="#a5b4fc"/>
  <rect x="316" y="256" width="24" height="14" rx="4" fill="#a5b4fc"/>
  <rect x="316" y="288" width="24" height="14" rx="4" fill="#a5b4fc"/>
</svg>
